HIERARCHY
ROOT SpineBase
{
  OFFSET 0.000000 0.000000 0.000000
  CHANNELS 6 Xposition Yposition Zposition Zrotation Xrotation Yrotation
  JOINT SpineMid
  {
    OFFSET 0.000000 29.011666 0.000000
    CHANNELS 3 Zrotation Xrotation Yrotation
    JOINT SpineShoulder
    {
      OFFSET 0.029509 21.560545 -0.624494
      CHANNELS 3 Zrotation Xrotation Yrotation
      JOINT Neck
      {
        OFFSET 0.028725 7.149559 -0.500547
        CHANNELS 3 Zrotation Xrotation Yrotation
        JOINT Head
        {
          OFFSET -4.944711 13.196223 -1.966411
          CHANNELS 3 Zrotation Xrotation Yrotation
          End Site
          {
            OFFSET 0 0 0
          }
        }
      }
      JOINT ShoulderLeft
      {
        OFFSET -15.985470 -4.847688 6.054432
        CHANNELS 3 Zrotation Xrotation Yrotation
        JOINT ElbowLeft
        {
          OFFSET -1.790851 -26.222270 1.889212
          CHANNELS 3 Zrotation Xrotation Yrotation
          JOINT WristLeft
          {
            OFFSET 1.037378 -20.553076 -5.505572
            CHANNELS 3 Zrotation Xrotation Yrotation
            JOINT HandLeft
            {
              OFFSET 0.517165 -2.236649 -0.389342
              CHANNELS 3 Zrotation Xrotation Yrotation
              JOINT HandTipLeft
              {
                OFFSET 0.896143 -7.776698 -0.178675
                CHANNELS 3 Zrotation Xrotation Yrotation
                End Site
                {
                  OFFSET 0 0 0
                }
              }
              JOINT ThumbLeft
              {
                OFFSET -2.690176 -2.250090 -1.984448
                CHANNELS 3 Zrotation Xrotation Yrotation
                End Site
                {
                  OFFSET 0 0 0
                }
              }
            }
          }
        }
      }
      JOINT ShoulderRight
      {
        OFFSET 14.271615 -2.591904 -7.620640
        CHANNELS 3 Zrotation Xrotation Yrotation
        JOINT ElbowRight
        {
          OFFSET 6.290046 -25.203158 -1.689555
          CHANNELS 3 Zrotation Xrotation Yrotation
          JOINT WristRight
          {
            OFFSET -2.801485 -19.895568 -7.413745
            CHANNELS 3 Zrotation Xrotation Yrotation
            JOINT HandRight
            {
              OFFSET -1.952545 -5.585265 -3.557822
              CHANNELS 3 Zrotation Xrotation Yrotation
              JOINT HandTipRight
              {
                OFFSET -1.479878 -6.006860 -2.175313
                CHANNELS 3 Zrotation Xrotation Yrotation
                End Site
                {
                  OFFSET 0 0 0
                }
              }
              JOINT ThumbRight
              {
                OFFSET 1.255509 -0.199544 -5.506680
                CHANNELS 3 Zrotation Xrotation Yrotation
                End Site
                {
                  OFFSET 0 0 0
                }
              }
            }
          }
        }
      }
    }
  }
  JOINT HipLeft
  {
    OFFSET -6.424846 0.256790 -0.595088
    CHANNELS 3 Zrotation Xrotation Yrotation
    JOINT KneeLeft
    {
      OFFSET 4.570292 -27.970899 6.135445
      CHANNELS 3 Zrotation Xrotation Yrotation
      JOINT AnkleLeft
      {
        OFFSET 5.465181 -32.792662 6.533311
        CHANNELS 3 Zrotation Xrotation Yrotation
        JOINT FootLeft
        {
          OFFSET -3.679707 -3.906412 -11.996056
          CHANNELS 3 Zrotation Xrotation Yrotation
          End Site
          {
            OFFSET 0 0 0
          }
        }
      }
    }
  }
  JOINT HipRight
  {
    OFFSET 6.984845 1.271357 -5.731295
    CHANNELS 3 Zrotation Xrotation Yrotation
    JOINT KneeRight
    {
      OFFSET 7.186402 -28.998797 4.239004
      CHANNELS 3 Zrotation Xrotation Yrotation
      JOINT AnkleRight
      {
        OFFSET 2.900970 -33.296622 7.376819
        CHANNELS 3 Zrotation Xrotation Yrotation
        JOINT FootRight
        {
          OFFSET -1.758720 -7.770605 -4.959365
          CHANNELS 3 Zrotation Xrotation Yrotation
          End Site
          {
            OFFSET 0 0 0
          }
        }
      }
    }
  }
}
MOTION
Frames: 11
Frame Time: 0.033333
-31.074169 68.631497 347.337623 3.536966 -1.866343 26.082583 -0.061479 -0.116966 -25.915848 -0.097592 0.111900 0.141170 -3.115563 4.492984 0.810644 0.000000 0.000000 0.000000 1.091392 -0.703320 0.265553 -3.123750 5.417503 -0.718722 -21.113976 -10.298544 -0.379726 24.339229 18.952734 -2.642268 0.000000 0.000000 0.000000 0.000000 0.000000 0.000000 -24.104686 38.877189 18.691077 -106.607321 9.580567 6.473857 -18.582851 -30.644601 -11.873595 -71.309966 5.648146 -110.042356 0.000000 0.000000 0.000000 0.000000 0.000000 0.000000 -2.671125 6.185295 -25.865011 2.735775 -2.140064 0.309986 0.657644 -5.606401 -1.093198 0.000000 0.000000 0.000000 -2.360301 3.228593 -25.958426 0.244010 1.063821 0.144754 0.657032 -4.417790 0.075468 0.000000 0.000000 0.000000
-31.082529 68.637905 347.342008 3.508154 -1.839593 25.999917 -0.089300 -0.089539 -25.836261 -0.113362 0.117496 0.137390 -3.058159 4.521489 0.839588 0.000000 0.000000 0.000000 0.820221 -1.114651 0.288650 -3.272898 5.195064 -0.576602 -15.782816 -10.157277 -0.783564 21.788411 22.550520 -1.977543 0.000000 0.000000 0.000000 0.000000 0.000000 0.000000 -24.657673 38.827154 18.985997 -106.529040 9.414699 6.256939 -17.530124 -30.267774 -11.073871 -70.340675 4.892524 -111.703172 0.000000 0.000000 0.000000 0.000000 0.000000 0.000000 -2.616953 6.119187 -25.776860 2.676590 -2.141394 0.295567 1.170581 -6.548172 -1.908154 0.000000 0.000000 0.000000 -2.350666 3.188589 -25.878141 0.048999 1.059775 0.102945 1.298999 -3.531297 -0.358993 0.000000 0.000000 0.000000
-31.079496 68.635010 347.354910 3.480158 -1.807022 25.858569 -0.106795 -0.061508 -25.698170 -0.124299 0.116985 0.134410 -2.925093 4.473205 0.849078 0.000000 0.000000 0.000000 0.552866 -1.612939 0.318037 -3.780343 4.748133 -0.339409 -8.680126 -6.741691 -0.430513 21.392271 23.968886 -2.025052 0.000000 0.000000 0.000000 0.000000 0.000000 0.000000 -24.864142 38.855341 19.141237 -106.503673 9.388478 6.081473 -19.305224 -31.369890 -13.238999 -67.503013 3.126167 -109.942564 0.000000 0.000000 0.000000 0.000000 0.000000 0.000000 -2.574980 6.040817 -25.630676 2.574470 -2.159097 0.268145 1.411770 -6.807539 -2.296739 0.000000 0.000000 0.000000 -2.347408 3.141338 -25.739292 0.099703 1.145434 0.121151 0.277259 -3.250664 0.125992 0.000000 0.000000 0.000000
-31.060850 68.602778 347.359007 3.468147 -1.750810 25.710819 -0.132917 -0.028992 -25.553849 -0.129040 0.123348 0.131691 -2.687244 4.390984 0.867355 0.000000 0.000000 0.000000 0.745451 -1.465980 0.310920 -3.956986 3.208663 -0.393384 -7.026562 -3.373307 0.241974 22.640396 24.519783 -2.317893 0.000000 0.000000 0.000000 0.000000 0.000000 0.000000 -25.015614 38.846507 19.247954 -106.592176 9.330792 5.908838 -19.393598 -31.351873 -13.234782 -67.156005 3.248661 -113.584227 0.000000 0.000000 0.000000 0.000000 0.000000 0.000000 -2.617747 5.926797 -25.490672 2.489449 -2.102814 0.255289 1.284605 -6.484207 -1.882962 0.000000 0.000000 0.000000 -2.368927 3.079485 -25.594124 0.208599 1.235073 0.151915 -1.057441 -3.362762 0.837608 0.000000 0.000000 0.000000
-31.004302 68.556488 347.343373 3.489197 -1.662868 25.600443 -0.170118 -0.001197 -25.446325 -0.139263 0.129672 0.129602 -2.406287 4.317385 0.902362 0.000000 0.000000 0.000000 0.998016 -1.211186 0.295581 -4.176928 2.850467 -0.391534 -8.139702 -2.959946 0.535294 26.673081 26.329142 -3.331928 0.000000 0.000000 0.000000 0.000000 0.000000 0.000000 -25.004495 38.819864 19.257739 -106.733563 9.306014 5.787731 -21.019879 -32.322511 -15.287402 -65.034059 1.993264 -114.447988 0.000000 0.000000 0.000000 0.000000 0.000000 0.000000 -2.801188 5.801143 -25.407430 2.514730 -2.005983 0.274153 -0.327404 -3.237345 0.486464 0.000000 0.000000 0.000000 -2.431706 3.004734 -25.486004 0.405429 1.355754 0.203622 -2.756372 -3.701978 1.723673 0.000000 0.000000 0.000000
-30.952478 68.547490 347.357395 3.513107 -1.605320 25.490053 -0.188762 0.041238 -25.338234 -0.126726 0.147685 0.128931 -2.159210 4.248565 0.938941 0.000000 0.000000 0.000000 1.122530 -1.060185 0.282351 -4.304386 2.593163 -0.389555 -7.591732 -1.008898 1.040766 24.584460 23.947784 -2.529485 0.000000 0.000000 0.000000 0.000000 0.000000 0.000000 -24.409789 38.671512 18.906706 -106.988109 9.351136 6.005171 -21.014759 -33.413199 -17.106382 -63.328756 -0.831493 -110.592167 0.000000 0.000000 0.000000 0.000000 0.000000 0.000000 -2.940670 5.779730 -25.312326 2.524488 -2.004269 0.276525 -0.817592 -2.389219 1.483918 0.000000 0.000000 0.000000 -2.483774 2.958394 -25.376671 0.636868 1.464063 0.261137 -4.417984 -4.184754 2.578027 0.000000 0.000000 0.000000
-30.875339 68.548022 347.364519 3.587362 -1.547728 25.393227 -0.211044 0.075208 -25.241330 -0.101559 0.165991 0.131004 -2.059546 4.385568 1.036225 0.000000 0.000000 0.000000 1.360893 -0.764871 0.262165 -4.609439 2.201319 -0.393484 -8.721044 -0.145395 1.503087 28.439154 22.598409 -3.168130 0.000000 0.000000 0.000000 0.000000 0.000000 0.000000 -24.232562 38.634020 18.777224 -106.900080 9.489610 6.071183 -22.805250 -34.934396 -20.331982 -61.485318 -2.689239 -106.644647 0.000000 0.000000 0.000000 0.000000 0.000000 0.000000 -3.185510 5.798794 -25.239120 2.599542 -2.005836 0.293643 -0.585016 -3.037990 1.696682 0.000000 0.000000 0.000000 -2.580581 2.933926 -25.278658 1.052298 1.613213 0.359720 -7.042685 -5.299251 3.931124 0.000000 0.000000 0.000000
-30.786509 68.558073 347.363966 3.681543 -1.487085 25.362286 -0.241176 0.104980 -25.209545 -0.078906 0.181173 0.133649 -2.031979 4.681510 1.182113 0.000000 0.000000 0.000000 1.717409 -0.330478 0.233243 -3.974436 1.566782 -0.725973 -11.370589 1.453411 2.597528 28.546992 20.870493 -2.796278 0.000000 0.000000 0.000000 0.000000 0.000000 0.000000 -24.075367 38.612059 18.657944 -106.862163 9.597104 6.092241 -23.556732 -35.784693 -22.079382 -61.084103 -3.556650 -104.188687 0.000000 0.000000 0.000000 0.000000 0.000000 0.000000 -3.450692 5.836880 -25.232137 2.669082 -2.004763 0.310026 0.096247 -4.686790 1.561882 0.000000 0.000000 0.000000 -3.266566 2.286110 -25.458231 1.740155 2.598612 0.680534 -9.674664 -6.975604 5.311086 0.000000 0.000000 0.000000
-30.690983 68.572947 347.352873 3.796608 -1.424195 25.369522 -0.271301 0.122940 -25.214878 -0.055047 0.190742 0.137609 -2.144986 5.061756 1.341216 0.000000 0.000000 0.000000 1.967295 -0.047139 0.213298 -4.152468 1.191430 -0.784030 -13.265412 3.788048 3.777379 24.972616 14.333994 -1.797765 0.000000 0.000000 0.000000 0.000000 0.000000 0.000000 -23.723176 38.457936 18.368524 -106.973098 9.629051 6.309901 -22.443568 -35.667253 -21.365876 -64.621002 -2.432370 -108.292199 0.000000 0.000000 0.000000 0.000000 0.000000 0.000000 -3.741832 5.876454 -25.264946 2.096058 -2.289622 0.126620 4.904235 -13.034272 -3.575705 0.000000 0.000000 0.000000 -3.486977 2.232752 -25.487961 1.148012 2.536152 0.570946 -6.347000 -5.934586 3.813473 0.000000 0.000000 0.000000
-30.605001 68.586984 347.340939 3.894939 -1.366879 25.346391 -0.302609 0.139487 -25.190429 -0.043466 0.196613 0.140362 -2.239951 5.457888 1.503181 0.000000 0.000000 0.000000 2.247098 0.193352 0.199282 -4.189260 1.077908 -0.876158 -16.134435 5.913082 5.209036 23.601057 8.394157 -1.644998 0.000000 0.000000 0.000000 0.000000 0.000000 0.000000 -23.540381 38.368379 18.206272 -107.138772 9.593466 6.356738 -20.796260 -34.942529 -19.463462 -67.356779 -0.979876 -112.179488 0.000000 0.000000 0.000000 0.000000 0.000000 0.000000 -4.000384 5.910439 -25.264518 2.245243 -2.268647 0.165043 7.957173 -21.286885 -7.520552 0.000000 0.000000 0.000000 -3.587038 2.228171 -25.459190 1.092576 2.530373 0.558550 -6.544720 -6.043088 3.982609 0.000000 0.000000 0.000000
-30.527952 68.603756 347.325833 3.962579 -1.306793 25.328189 -0.327314 0.150094 -25.172170 -0.038364 0.195143 0.142137 -2.279603 5.880464 1.676592 0.000000 0.000000 0.000000 2.383764 0.279338 0.194664 -4.112835 1.055804 -0.950265 -19.962461 6.732734 6.485695 24.948584 3.382432 -2.035766 0.000000 0.000000 0.000000 0.000000 0.000000 0.000000 -23.490631 38.356905 18.158305 -107.255895 9.547709 6.250267 -18.682632 -34.218373 -17.493137 -68.118406 -1.174953 -112.179635 0.000000 0.000000 0.000000 0.000000 0.000000 0.000000 -4.208986 5.908758 -25.267931 2.365082 -2.239041 0.197673 10.711165 -30.189444 -11.672255 0.000000 0.000000 0.000000 -3.638198 2.196209 -25.434903 0.910902 2.440101 0.516446 -6.025073 -5.823895 3.792821 0.000000 0.000000 0.000000
